STARTFONT 2.1
COMMENT Exported by Fony v1.4.7
FONT FreeSans
SIZE 28 96 96
FONTBOUNDINGBOX 29 27 0 -2
STARTPROPERTIES 6
COPYRIGHT ""
RESOLUTION_X 96
RESOLUTION_Y 96
FONT_ASCENT 26
FONT_DESCENT 2
DEFAULT_CHAR 0
ENDPROPERTIES
CHARS 256
STARTCHAR 000
ENCODING 0
SWIDTH 1656 0
DWIDTH 23 0
BBX 21 25 1 -2
BITMAP
FFFFF8
FFFFF8
C03018
C1FE18
C3FF18
C70718
C60398
C60398
CE0398
C00398
C00718
C00F18
C01E18
C03C18
C03818
C07018
C07018
C07018
C00018
C00018
C00018
C07018
C07018
C07018
C00018
ENDCHAR
STARTCHAR 001
ENCODING 1
SWIDTH 1656 0
DWIDTH 23 0
BBX 21 25 1 -2
BITMAP
FFFFF8
FFFFF8
C03018
C1FE18
C3FF18
C70718
C60398
C60398
CE0398
C00398
C00718
C00F18
C01E18
C03C18
C03818
C07018
C07018
C07018
C00018
C00018
C00018
C07018
C07018
C07018
C00018
ENDCHAR
STARTCHAR 002
ENCODING 2
SWIDTH 1656 0
DWIDTH 23 0
BBX 21 25 1 -2
BITMAP
FFFFF8
FFFFF8
C03018
C1FE18
C3FF18
C70718
C60398
C60398
CE0398
C00398
C00718
C00F18
C01E18
C03C18
C03818
C07018
C07018
C07018
C00018
C00018
C00018
C07018
C07018
C07018
C00018
ENDCHAR
STARTCHAR 003
ENCODING 3
SWIDTH 1656 0
DWIDTH 23 0
BBX 21 25 1 -2
BITMAP
FFFFF8
FFFFF8
C03018
C1FE18
C3FF18
C70718
C60398
C60398
CE0398
C00398
C00718
C00F18
C01E18
C03C18
C03818
C07018
C07018
C07018
C00018
C00018
C00018
C07018
C07018
C07018
C00018
ENDCHAR
STARTCHAR 004
ENCODING 4
SWIDTH 1656 0
DWIDTH 23 0
BBX 21 25 1 -2
BITMAP
FFFFF8
FFFFF8
C03018
C1FE18
C3FF18
C70718
C60398
C60398
CE0398
C00398
C00718
C00F18
C01E18
C03C18
C03818
C07018
C07018
C07018
C00018
C00018
C00018
C07018
C07018
C07018
C00018
ENDCHAR
STARTCHAR 005
ENCODING 5
SWIDTH 1656 0
DWIDTH 23 0
BBX 21 25 1 -2
BITMAP
FFFFF8
FFFFF8
C03018
C1FE18
C3FF18
C70718
C60398
C60398
CE0398
C00398
C00718
C00F18
C01E18
C03C18
C03818
C07018
C07018
C07018
C00018
C00018
C00018
C07018
C07018
C07018
C00018
ENDCHAR
STARTCHAR 006
ENCODING 6
SWIDTH 1656 0
DWIDTH 23 0
BBX 21 25 1 -2
BITMAP
FFFFF8
FFFFF8
C03018
C1FE18
C3FF18
C70718
C60398
C60398
CE0398
C00398
C00718
C00F18
C01E18
C03C18
C03818
C07018
C07018
C07018
C00018
C00018
C00018
C07018
C07018
C07018
C00018
ENDCHAR
STARTCHAR 007
ENCODING 7
SWIDTH 1656 0
DWIDTH 23 0
BBX 21 25 1 -2
BITMAP
FFFFF8
FFFFF8
C03018
C1FE18
C3FF18
C70718
C60398
C60398
CE0398
C00398
C00718
C00F18
C01E18
C03C18
C03818
C07018
C07018
C07018
C00018
C00018
C00018
C07018
C07018
C07018
C00018
ENDCHAR
STARTCHAR 008
ENCODING 8
SWIDTH 1656 0
DWIDTH 23 0
BBX 21 25 1 -2
BITMAP
FFFFF8
FFFFF8
C03018
C1FE18
C3FF18
C70718
C60398
C60398
CE0398
C00398
C00718
C00F18
C01E18
C03C18
C03818
C07018
C07018
C07018
C00018
C00018
C00018
C07018
C07018
C07018
C00018
ENDCHAR
STARTCHAR 009
ENCODING 9
SWIDTH 1656 0
DWIDTH 23 0
BBX 21 25 1 -2
BITMAP
FFFFF8
FFFFF8
C03018
C1FE18
C3FF18
C70718
C60398
C60398
CE0398
C00398
C00718
C00F18
C01E18
C03C18
C03818
C07018
C07018
C07018
C00018
C00018
C00018
C07018
C07018
C07018
C00018
ENDCHAR
STARTCHAR 010
ENCODING 10
SWIDTH 1656 0
DWIDTH 23 0
BBX 21 25 1 -2
BITMAP
FFFFF8
FFFFF8
C03018
C1FE18
C3FF18
C70718
C60398
C60398
CE0398
C00398
C00718
C00F18
C01E18
C03C18
C03818
C07018
C07018
C07018
C00018
C00018
C00018
C07018
C07018
C07018
C00018
ENDCHAR
STARTCHAR 011
ENCODING 11
SWIDTH 1656 0
DWIDTH 23 0
BBX 21 25 1 -2
BITMAP
FFFFF8
FFFFF8
C03018
C1FE18
C3FF18
C70718
C60398
C60398
CE0398
C00398
C00718
C00F18
C01E18
C03C18
C03818
C07018
C07018
C07018
C00018
C00018
C00018
C07018
C07018
C07018
C00018
ENDCHAR
STARTCHAR 012
ENCODING 12
SWIDTH 1656 0
DWIDTH 23 0
BBX 21 25 1 -2
BITMAP
FFFFF8
FFFFF8
C03018
C1FE18
C3FF18
C70718
C60398
C60398
CE0398
C00398
C00718
C00F18
C01E18
C03C18
C03818
C07018
C07018
C07018
C00018
C00018
C00018
C07018
C07018
C07018
C00018
ENDCHAR
STARTCHAR 013
ENCODING 13
SWIDTH 1656 0
DWIDTH 23 0
BBX 21 25 1 -2
BITMAP
FFFFF8
FFFFF8
C03018
C1FE18
C3FF18
C70718
C60398
C60398
CE0398
C00398
C00718
C00F18
C01E18
C03C18
C03818
C07018
C07018
C07018
C00018
C00018
C00018
C07018
C07018
C07018
C00018
ENDCHAR
STARTCHAR 014
ENCODING 14
SWIDTH 1656 0
DWIDTH 23 0
BBX 21 25 1 -2
BITMAP
FFFFF8
FFFFF8
C03018
C1FE18
C3FF18
C70718
C60398
C60398
CE0398
C00398
C00718
C00F18
C01E18
C03C18
C03818
C07018
C07018
C07018
C00018
C00018
C00018
C07018
C07018
C07018
C00018
ENDCHAR
STARTCHAR 015
ENCODING 15
SWIDTH 1656 0
DWIDTH 23 0
BBX 21 25 1 -2
BITMAP
FFFFF8
FFFFF8
C03018
C1FE18
C3FF18
C70718
C60398
C60398
CE0398
C00398
C00718
C00F18
C01E18
C03C18
C03818
C07018
C07018
C07018
C00018
C00018
C00018
C07018
C07018
C07018
C00018
ENDCHAR
STARTCHAR 016
ENCODING 16
SWIDTH 1656 0
DWIDTH 23 0
BBX 21 25 1 -2
BITMAP
FFFFF8
FFFFF8
C03018
C1FE18
C3FF18
C70718
C60398
C60398
CE0398
C00398
C00718
C00F18
C01E18
C03C18
C03818
C07018
C07018
C07018
C00018
C00018
C00018
C07018
C07018
C07018
C00018
ENDCHAR
STARTCHAR 017
ENCODING 17
SWIDTH 1656 0
DWIDTH 23 0
BBX 21 25 1 -2
BITMAP
FFFFF8
FFFFF8
C03018
C1FE18
C3FF18
C70718
C60398
C60398
CE0398
C00398
C00718
C00F18
C01E18
C03C18
C03818
C07018
C07018
C07018
C00018
C00018
C00018
C07018
C07018
C07018
C00018
ENDCHAR
STARTCHAR 018
ENCODING 18
SWIDTH 1656 0
DWIDTH 23 0
BBX 21 25 1 -2
BITMAP
FFFFF8
FFFFF8
C03018
C1FE18
C3FF18
C70718
C60398
C60398
CE0398
C00398
C00718
C00F18
C01E18
C03C18
C03818
C07018
C07018
C07018
C00018
C00018
C00018
C07018
C07018
C07018
C00018
ENDCHAR
STARTCHAR 019
ENCODING 19
SWIDTH 1656 0
DWIDTH 23 0
BBX 21 25 1 -2
BITMAP
FFFFF8
FFFFF8
C03018
C1FE18
C3FF18
C70718
C60398
C60398
CE0398
C00398
C00718
C00F18
C01E18
C03C18
C03818
C07018
C07018
C07018
C00018
C00018
C00018
C07018
C07018
C07018
C00018
ENDCHAR
STARTCHAR 020
ENCODING 20
SWIDTH 1656 0
DWIDTH 23 0
BBX 21 25 1 -2
BITMAP
FFFFF8
FFFFF8
C03018
C1FE18
C3FF18
C70718
C60398
C60398
CE0398
C00398
C00718
C00F18
C01E18
C03C18
C03818
C07018
C07018
C07018
C00018
C00018
C00018
C07018
C07018
C07018
C00018
ENDCHAR
STARTCHAR 021
ENCODING 21
SWIDTH 1656 0
DWIDTH 23 0
BBX 21 25 1 -2
BITMAP
FFFFF8
FFFFF8
C03018
C1FE18
C3FF18
C70718
C60398
C60398
CE0398
C00398
C00718
C00F18
C01E18
C03C18
C03818
C07018
C07018
C07018
C00018
C00018
C00018
C07018
C07018
C07018
C00018
ENDCHAR
STARTCHAR 022
ENCODING 22
SWIDTH 1656 0
DWIDTH 23 0
BBX 21 25 1 -2
BITMAP
FFFFF8
FFFFF8
C03018
C1FE18
C3FF18
C70718
C60398
C60398
CE0398
C00398
C00718
C00F18
C01E18
C03C18
C03818
C07018
C07018
C07018
C00018
C00018
C00018
C07018
C07018
C07018
C00018
ENDCHAR
STARTCHAR 023
ENCODING 23
SWIDTH 1656 0
DWIDTH 23 0
BBX 21 25 1 -2
BITMAP
FFFFF8
FFFFF8
C03018
C1FE18
C3FF18
C70718
C60398
C60398
CE0398
C00398
C00718
C00F18
C01E18
C03C18
C03818
C07018
C07018
C07018
C00018
C00018
C00018
C07018
C07018
C07018
C00018
ENDCHAR
STARTCHAR 024
ENCODING 24
SWIDTH 1656 0
DWIDTH 23 0
BBX 21 25 1 -2
BITMAP
FFFFF8
FFFFF8
C03018
C1FE18
C3FF18
C70718
C60398
C60398
CE0398
C00398
C00718
C00F18
C01E18
C03C18
C03818
C07018
C07018
C07018
C00018
C00018
C00018
C07018
C07018
C07018
C00018
ENDCHAR
STARTCHAR 025
ENCODING 25
SWIDTH 1656 0
DWIDTH 23 0
BBX 21 25 1 -2
BITMAP
FFFFF8
FFFFF8
C03018
C1FE18
C3FF18
C70718
C60398
C60398
CE0398
C00398
C00718
C00F18
C01E18
C03C18
C03818
C07018
C07018
C07018
C00018
C00018
C00018
C07018
C07018
C07018
C00018
ENDCHAR
STARTCHAR 026
ENCODING 26
SWIDTH 1656 0
DWIDTH 23 0
BBX 21 25 1 -2
BITMAP
FFFFF8
FFFFF8
C03018
C1FE18
C3FF18
C70718
C60398
C60398
CE0398
C00398
C00718
C00F18
C01E18
C03C18
C03818
C07018
C07018
C07018
C00018
C00018
C00018
C07018
C07018
C07018
C00018
ENDCHAR
STARTCHAR 027
ENCODING 27
SWIDTH 1656 0
DWIDTH 23 0
BBX 21 25 1 -2
BITMAP
FFFFF8
FFFFF8
C03018
C1FE18
C3FF18
C70718
C60398
C60398
CE0398
C00398
C00718
C00F18
C01E18
C03C18
C03818
C07018
C07018
C07018
C00018
C00018
C00018
C07018
C07018
C07018
C00018
ENDCHAR
STARTCHAR 028
ENCODING 28
SWIDTH 1656 0
DWIDTH 23 0
BBX 21 25 1 -2
BITMAP
FFFFF8
FFFFF8
C03018
C1FE18
C3FF18
C70718
C60398
C60398
CE0398
C00398
C00718
C00F18
C01E18
C03C18
C03818
C07018
C07018
C07018
C00018
C00018
C00018
C07018
C07018
C07018
C00018
ENDCHAR
STARTCHAR 029
ENCODING 29
SWIDTH 1656 0
DWIDTH 23 0
BBX 21 25 1 -2
BITMAP
FFFFF8
FFFFF8
C03018
C1FE18
C3FF18
C70718
C60398
C60398
CE0398
C00398
C00718
C00F18
C01E18
C03C18
C03818
C07018
C07018
C07018
C00018
C00018
C00018
C07018
C07018
C07018
C00018
ENDCHAR
STARTCHAR 030
ENCODING 30
SWIDTH 1656 0
DWIDTH 23 0
BBX 21 25 1 -2
BITMAP
FFFFF8
FFFFF8
C03018
C1FE18
C3FF18
C70718
C60398
C60398
CE0398
C00398
C00718
C00F18
C01E18
C03C18
C03818
C07018
C07018
C07018
C00018
C00018
C00018
C07018
C07018
C07018
C00018
ENDCHAR
STARTCHAR 031
ENCODING 31
SWIDTH 1656 0
DWIDTH 23 0
BBX 21 25 1 -2
BITMAP
FFFFF8
FFFFF8
C03018
C1FE18
C3FF18
C70718
C60398
C60398
CE0398
C00398
C00718
C00F18
C01E18
C03C18
C03818
C07018
C07018
C07018
C00018
C00018
C00018
C07018
C07018
C07018
C00018
ENDCHAR
STARTCHAR 032
ENCODING 32
SWIDTH 504 0
DWIDTH 7 0
BBX 0 0 0 0
BITMAP
ENDCHAR
STARTCHAR 033
ENCODING 33
SWIDTH 720 0
DWIDTH 10 0
BBX 2 21 4 0
BITMAP
C0
C0
C0
C0
C0
C0
C0
C0
C0
C0
C0
C0
C0
C0
C0
80
00
00
C0
C0
C0
ENDCHAR
STARTCHAR 034
ENCODING 34
SWIDTH 720 0
DWIDTH 10 0
BBX 8 8 1 13
BITMAP
E7
E7
E7
E7
E6
66
46
42
ENDCHAR
STARTCHAR 035
ENCODING 35
SWIDTH 1152 0
DWIDTH 16 0
BBX 16 21 0 -1
BITMAP
030C
030C
031C
0718
0618
7FFF
7FFF
0638
0E30
0C30
0C30
0C30
FFFE
FFFE
1C60
1860
1860
1860
18E0
38C0
30C0
ENDCHAR
STARTCHAR 036
ENCODING 36
SWIDTH 1152 0
DWIDTH 16 0
BBX 14 24 1 -2
BITMAP
0300
0780
3FE0
7B70
7338
E318
E318
E300
E300
7300
7F00
1FE0
07F0
0378
031C
031C
C30C
C30C
E31C
6318
7BF8
3FF0
0780
0300
ENDCHAR
STARTCHAR 037
ENCODING 37
SWIDTH 1872 0
DWIDTH 26 0
BBX 24 22 1 -1
BITMAP
000060
1E00C0
7F0080
638180
C18300
C0C300
C0C600
C1C600
E38C00
7F0C00
1E1800
001800
0030FC
0031FE
006386
00C303
00C303
018303
018387
0301FE
0300FC
060000
ENDCHAR
STARTCHAR 038
ENCODING 38
SWIDTH 1368 0
DWIDTH 19 0
BBX 16 22 2 -1
BITMAP
0200
0FC0
1FE0
3860
3070
3070
3860
18E0
1FC0
0F00
1F00
3B8E
71CE
E1CC
C0EC
C07C
C038
C03C
E0FC
7FEE
3F87
0E00
ENDCHAR
STARTCHAR 039
ENCODING 39
SWIDTH 432 0
DWIDTH 6 0
BBX 2 8 2 13
BITMAP
C0
C0
C0
C0
C0
C0
C0
C0
ENDCHAR
STARTCHAR 040
ENCODING 40
SWIDTH 720 0
DWIDTH 10 0
BBX 6 23 2 -2
BITMAP
0C
0C
18
18
30
30
60
60
60
E0
E0
E0
C0
C0
C0
E0
E0
60
60
60
60
30
30
ENDCHAR
STARTCHAR 041
ENCODING 41
SWIDTH 720 0
DWIDTH 10 0
BBX 6 23 1 -2
BITMAP
C0
60
20
30
30
18
18
18
0C
0C
0C
0C
0C
0C
0C
0C
0C
0C
0C
18
18
18
30
ENDCHAR
STARTCHAR 042
ENCODING 42
SWIDTH 792 0
DWIDTH 11 0
BBX 9 8 1 13
BITMAP
0800
0800
4980
FF80
1C00
1E00
3600
2200
ENDCHAR
STARTCHAR 043
ENCODING 43
SWIDTH 1224 0
DWIDTH 17 0
BBX 14 14 1 0
BITMAP
0300
0300
0300
0300
0300
0300
FFFC
FFFC
0300
0300
0300
0300
0300
0300
ENDCHAR
STARTCHAR 044
ENCODING 44
SWIDTH 576 0
DWIDTH 8 0
BBX 3 5 3 -2
BITMAP
E0
E0
E0
60
40
ENDCHAR
STARTCHAR 045
ENCODING 45
SWIDTH 720 0
DWIDTH 10 0
BBX 7 2 1 7
BITMAP
FE
FE
ENDCHAR
STARTCHAR 046
ENCODING 46
SWIDTH 504 0
DWIDTH 7 0
BBX 3 3 2 0
BITMAP
E0
E0
E0
ENDCHAR
STARTCHAR 047
ENCODING 47
SWIDTH 576 0
DWIDTH 8 0
BBX 8 22 0 -1
BITMAP
03
03
02
06
06
04
04
0C
0C
08
18
18
10
30
30
20
60
60
40
C0
C0
80
ENDCHAR
STARTCHAR 048
ENCODING 48
SWIDTH 1152 0
DWIDTH 16 0
BBX 14 22 1 -1
BITMAP
0300
0FE0
3FF0
3870
7038
7038
6018
E018
E01C
E01C
E01C
E01C
E01C
E01C
E018
6018
7038
7038
3870
3FF0
1FE0
0780
ENDCHAR
STARTCHAR 049
ENCODING 49
SWIDTH 1152 0
DWIDTH 16 0
BBX 7 21 3 0
BITMAP
06
06
06
0E
FE
FE
06
06
06
06
06
06
06
06
06
06
06
06
06
06
06
ENDCHAR
STARTCHAR 050
ENCODING 50
SWIDTH 1152 0
DWIDTH 16 0
BBX 14 21 1 0
BITMAP
0100
1FE0
3FF0
7838
701C
601C
E01C
E01C
0018
0038
0070
01E0
07C0
0F00
3C00
3800
7000
6000
FFFC
FFFC
FFFC
ENDCHAR
STARTCHAR 051
ENCODING 51
SWIDTH 1152 0
DWIDTH 16 0
BBX 14 22 1 -1
BITMAP
0200
1FE0
3FF0
7078
6038
E038
E038
0038
0030
07F0
07E0
07F0
0038
0018
001C
E01C
E01C
E018
7038
7FF0
3FE0
0300
ENDCHAR
STARTCHAR 052
ENCODING 52
SWIDTH 1152 0
DWIDTH 16 0
BBX 14 21 1 0
BITMAP
0060
00E0
00E0
01E0
03E0
07E0
06E0
0EE0
1CE0
18E0
30E0
70E0
E0E0
C0E0
FFFC
FFFC
00E0
00E0
00E0
00E0
00E0
ENDCHAR
STARTCHAR 053
ENCODING 53
SWIDTH 1152 0
DWIDTH 16 0
BBX 14 22 1 -1
BITMAP
3FF8
3FF8
3FF8
3000
3000
7000
7000
7100
6FE0
7FF0
7078
6038
001C
001C
001C
001C
E01C
E018
7038
3FF0
1FE0
0700
ENDCHAR
STARTCHAR 054
ENCODING 54
SWIDTH 1152 0
DWIDTH 16 0
BBX 14 22 1 -1
BITMAP
0180
0FE0
1FF0
3838
7038
7018
6000
6000
E380
EFE0
FFF8
F038
F01C
E01C
E01C
601C
601C
7018
3838
3FF0
1FE0
0780
ENDCHAR
STARTCHAR 055
ENCODING 55
SWIDTH 1152 0
DWIDTH 16 0
BBX 14 21 1 0
BITMAP
FFFC
FFFC
FFFC
0018
0038
0030
0060
00E0
00C0
01C0
0180
0380
0300
0700
0600
0600
0E00
0C00
0C00
1C00
1C00
ENDCHAR
STARTCHAR 056
ENCODING 56
SWIDTH 1152 0
DWIDTH 16 0
BBX 14 21 1 -1
BITMAP
1FE0
3FF0
7878
7038
6018
6038
7038
3870
1FE0
1FE0
3CF0
7038
E01C
E01C
E01C
E01C
E01C
7038
3FF0
1FE0
0300
ENDCHAR
STARTCHAR 057
ENCODING 57
SWIDTH 1152 0
DWIDTH 16 0
BBX 14 22 1 -1
BITMAP
0200
1FE0
3FF0
7070
6038
E018
E018
E01C
E01C
E03C
703C
7DFC
3FDC
0F1C
0018
0018
6038
6038
7070
3FE0
1FC0
0700
ENDCHAR
STARTCHAR 058
ENCODING 58
SWIDTH 504 0
DWIDTH 7 0
BBX 3 15 2 0
BITMAP
E0
E0
E0
00
00
00
00
00
00
00
00
00
E0
E0
E0
ENDCHAR
STARTCHAR 059
ENCODING 59
SWIDTH 504 0
DWIDTH 7 0
BBX 3 17 2 -2
BITMAP
E0
E0
E0
00
00
00
00
00
00
00
00
00
E0
E0
E0
20
20
ENDCHAR
STARTCHAR 060
ENCODING 60
SWIDTH 1224 0
DWIDTH 17 0
BBX 14 13 1 0
BITMAP
000C
007C
01F0
0FC0
3E00
F800
F000
7C00
1F80
03E0
00F8
003C
0004
ENDCHAR
STARTCHAR 061
ENCODING 61
SWIDTH 1224 0
DWIDTH 17 0
BBX 14 7 1 3
BITMAP
FFFC
FFFC
0000
0000
0000
FFFC
FFFC
ENDCHAR
STARTCHAR 062
ENCODING 62
SWIDTH 1224 0
DWIDTH 17 0
BBX 15 14 1 0
BITMAP
8000
E000
FC00
1F00
07C0
00F8
003E
001E
007C
03F0
0F80
3E00
F800
C000
ENDCHAR
STARTCHAR 063
ENCODING 63
SWIDTH 1152 0
DWIDTH 16 0
BBX 13 21 2 0
BITMAP
1FC0
3FF0
7070
6038
E038
E038
0038
0070
00F0
01E0
03C0
0380
0700
0700
0700
0000
0000
0000
0700
0700
0700
ENDCHAR
STARTCHAR 064
ENCODING 64
SWIDTH 2088 0
DWIDTH 29 0
BBX 27 23 1 -2
BITMAP
007FE000
01FFF800
03C03E00
0F000F00
1E000780
1C000380
381F39C0
703FB1C0
6070F0C0
60E070E0
E1C060E0
E1C060E0
C180E0C0
C180C1C0
E180C1C0
E1C1C380
E1C3C780
70FEFF00
707CFC00
38000000
1C000000
0F000000
07C06000
ENDCHAR
STARTCHAR 065
ENCODING 65
SWIDTH 1368 0
DWIDTH 19 0
BBX 18 21 1 0
BITMAP
01E000
03E000
03E000
037000
077000
073000
063800
0E3800
0E1800
0C1C00
1C1C00
1C0E00
3FFE00
3FFE00
3FFF00
700700
700700
700380
E00380
E00380
E001C0
ENDCHAR
STARTCHAR 066
ENCODING 66
SWIDTH 1368 0
DWIDTH 19 0
BBX 16 21 2 0
BITMAP
FFF0
FFFC
E03C
E00E
E00E
E00E
E00E
E00E
E01C
FFF8
FFFC
E01E
E007
E007
E007
E007
E007
E00F
E01E
FFFC
FFF8
ENDCHAR
STARTCHAR 067
ENCODING 67
SWIDTH 1512 0
DWIDTH 21 0
BBX 18 22 1 -1
BITMAP
07FC00
0FFF00
1E0F00
380380
300180
7001C0
600000
E00000
E00000
E00000
E00000
E00000
E00000
E000C0
6001C0
7001C0
7001C0
380380
1E0780
1FFF00
07FC00
00F000
ENDCHAR
STARTCHAR 068
ENCODING 68
SWIDTH 1440 0
DWIDTH 20 0
BBX 17 21 2 0
BITMAP
FFF000
FFFC00
E03E00
E00E00
E00700
E00700
E00380
E00380
E00380
E00380
E00380
E00380
E00380
E00380
E00380
E00700
E00700
E00E00
E07E00
FFF800
FFE000
ENDCHAR
STARTCHAR 069
ENCODING 69
SWIDTH 1296 0
DWIDTH 18 0
BBX 15 21 2 0
BITMAP
FFFE
FFFE
E000
E000
E000
E000
E000
E000
E000
FFFE
FFFE
E000
E000
E000
E000
E000
E000
E000
E000
FFFE
FFFE
ENDCHAR
STARTCHAR 070
ENCODING 70
SWIDTH 1224 0
DWIDTH 17 0
BBX 15 21 2 0
BITMAP
FFFE
FFFE
E000
E000
E000
E000
E000
E000
E000
FFF8
FFF8
E000
E000
E000
E000
E000
E000
E000
E000
E000
E000
ENDCHAR
STARTCHAR 071
ENCODING 71
SWIDTH 1584 0
DWIDTH 22 0
BBX 19 22 1 -1
BITMAP
03FE00
0FFF80
1E07C0
3C01C0
3800E0
7000E0
700000
E00000
E00000
E00000
E01FE0
E01FE0
E00060
E00060
700060
700060
7800E0
3801E0
1E03E0
0FFF60
07FC20
00E000
ENDCHAR
STARTCHAR 072
ENCODING 72
SWIDTH 1512 0
DWIDTH 21 0
BBX 17 21 2 0
BITMAP
E00380
E00380
E00380
E00380
E00380
E00380
E00380
E00380
E00380
FFFF80
FFFF80
E00380
E00380
E00380
E00380
E00380
E00380
E00380
E00380
E00380
E00380
ENDCHAR
STARTCHAR 073
ENCODING 73
SWIDTH 576 0
DWIDTH 8 0
BBX 3 21 3 0
BITMAP
E0
E0
E0
E0
E0
E0
E0
E0
E0
E0
E0
E0
E0
E0
E0
E0
E0
E0
E0
E0
E0
ENDCHAR
STARTCHAR 074
ENCODING 74
SWIDTH 1080 0
DWIDTH 15 0
BBX 12 22 1 -1
BITMAP
0070
0070
0070
0070
0070
0070
0070
0070
0070
0070
0070
0070
0070
0070
E070
E070
E070
E070
F0E0
7FE0
3FC0
0600
ENDCHAR
STARTCHAR 075
ENCODING 75
SWIDTH 1440 0
DWIDTH 20 0
BBX 17 21 2 0
BITMAP
E00780
E00E00
E01C00
E03800
E07000
E0E000
E1C000
E38000
E70000
EF8000
FDC000
F9E000
F0E000
E07000
E07800
E03800
E01C00
E00E00
E00E00
E00700
E00380
ENDCHAR
STARTCHAR 076
ENCODING 76
SWIDTH 1152 0
DWIDTH 16 0
BBX 13 21 2 0
BITMAP
E000
E000
E000
E000
E000
E000
E000
E000
E000
E000
E000
E000
E000
E000
E000
E000
E000
E000
E000
FFF8
FFF8
ENDCHAR
STARTCHAR 077
ENCODING 77
SWIDTH 1800 0
DWIDTH 25 0
BBX 20 21 2 0
BITMAP
F000F0
F800F0
F800F0
F801F0
FC01B0
EC01B0
EC03B0
EE0330
E60330
E60730
E70630
E30630
E30E30
E38C30
E18C30
E19C30
E1D830
E0D830
E0F830
E0F030
E07030
ENDCHAR
STARTCHAR 078
ENCODING 78
SWIDTH 1512 0
DWIDTH 21 0
BBX 17 21 2 0
BITMAP
F00380
F00380
F80380
FC0380
FC0380
EE0380
E70380
E70380
E38380
E38380
E1C380
E0E380
E0E380
E07380
E03B80
E03B80
E01F80
E00F80
E00F80
E00780
E00780
ENDCHAR
STARTCHAR 079
ENCODING 79
SWIDTH 1656 0
DWIDTH 23 0
BBX 21 22 1 -1
BITMAP
03FE00
0FFF80
1E07C0
3C01E0
3800E0
700070
700070
E00070
E00030
E00038
E00038
E00038
E00030
E00030
700070
700070
7800E0
3C01E0
1E03C0
0FFF80
07FE00
00F800
ENDCHAR
STARTCHAR 080
ENCODING 80
SWIDTH 1368 0
DWIDTH 19 0
BBX 16 21 2 0
BITMAP
FFF0
FFFC
E03E
E00E
E006
E007
E007
E00E
E00E
E03E
FFFC
FFF0
E000
E000
E000
E000
E000
E000
E000
E000
E000
ENDCHAR
STARTCHAR 081
ENCODING 81
SWIDTH 1656 0
DWIDTH 23 0
BBX 21 22 1 -1
BITMAP
03FE00
0FFF80
1E07C0
3C01E0
3800E0
700070
700070
E00070
E00030
E00038
E00038
E00038
E00030
E00070
600070
700470
780EE0
3C07E0
1E03C0
0FFFC0
07FEF0
00F870
ENDCHAR
STARTCHAR 082
ENCODING 82
SWIDTH 1512 0
DWIDTH 21 0
BBX 17 21 2 0
BITMAP
FFF800
FFFE00
E01F00
E00700
E00300
E00300
E00300
E00700
E00700
E03E00
FFF800
FFFE00
E00E00
E00700
E00700
E00700
E00700
E00700
E00700
E00380
E00380
ENDCHAR
STARTCHAR 083
ENCODING 83
SWIDTH 1368 0
DWIDTH 19 0
BBX 17 22 1 -1
BITMAP
0FF800
1FFC00
380E00
700700
700700
700300
700000
780000
3E0000
1FE000
07FC00
00FE00
000F00
000780
E00380
E00380
600380
700380
380700
3FFE00
0FFC00
03C000
ENDCHAR
STARTCHAR 084
ENCODING 84
SWIDTH 1296 0
DWIDTH 18 0
BBX 16 21 1 0
BITMAP
FFFF
FFFF
01C0
01C0
01C0
01C0
01C0
01C0
01C0
01C0
01C0
01C0
01C0
01C0
01C0
01C0
01C0
01C0
01C0
01C0
01C0
ENDCHAR
STARTCHAR 085
ENCODING 85
SWIDTH 1512 0
DWIDTH 21 0
BBX 17 22 2 -1
BITMAP
E00380
E00380
E00380
E00380
E00380
E00380
E00380
E00380
E00380
E00380
E00380
E00380
E00380
E00380
E00380
E00380
E00300
700700
780F00
3FFE00
1FF800
01E000
ENDCHAR
STARTCHAR 086
ENCODING 86
SWIDTH 1368 0
DWIDTH 19 0
BBX 17 21 1 0
BITMAP
E00380
E00380
E00300
700700
700700
700600
380E00
380E00
180C00
1C1C00
1C1C00
0C1800
0E3800
0E3800
063000
077000
077000
036000
03E000
01C000
01C000
ENDCHAR
STARTCHAR 087
ENCODING 87
SWIDTH 1944 0
DWIDTH 27 0
BBX 26 21 1 0
BITMAP
E01C01C0
E01C0380
E03E0380
E03E0380
70360380
70370700
70770700
70730700
30630700
38E38600
38E38E00
38C18E00
18C1CE00
1DC1CC00
1DC0DC00
1D80DC00
0D80FC00
0F80F800
0F807800
0F007800
07007800
ENDCHAR
STARTCHAR 088
ENCODING 88
SWIDTH 1368 0
DWIDTH 19 0
BBX 17 21 1 0
BITMAP
F00380
700700
380E00
3C0E00
1C1C00
0E3800
0F3800
077000
03E000
03E000
01C000
03E000
077000
077000
0E3800
1C1C00
1C1E00
380E00
700700
F00780
E00380
ENDCHAR
STARTCHAR 089
ENCODING 89
SWIDTH 1440 0
DWIDTH 20 0
BBX 18 21 1 0
BITMAP
E001C0
F00380
700780
380700
3C0E00
1C0E00
0E1C00
0E1C00
073800
03F000
03F000
01E000
01C000
00C000
00C000
00C000
00C000
00C000
00C000
00C000
00C000
ENDCHAR
STARTCHAR 090
ENCODING 90
SWIDTH 1296 0
DWIDTH 18 0
BBX 16 21 1 0
BITMAP
7FFF
7FFF
000F
000E
001C
0038
0078
00F0
00E0
01C0
03C0
0780
0700
0E00
1C00
3C00
3800
7000
E000
FFFF
FFFF
ENDCHAR
STARTCHAR 091
ENCODING 91
SWIDTH 576 0
DWIDTH 8 0
BBX 5 23 2 -2
BITMAP
F8
F8
C0
C0
C0
C0
C0
C0
C0
C0
C0
C0
C0
C0
C0
C0
C0
C0
C0
C0
C0
C0
C0
ENDCHAR
STARTCHAR 092
ENCODING 92
SWIDTH 576 0
DWIDTH 8 0
BBX 8 22 0 -1
BITMAP
C0
C0
40
60
60
20
20
30
30
10
18
18
08
0C
0C
04
06
06
02
03
03
01
ENDCHAR
STARTCHAR 093
ENCODING 93
SWIDTH 576 0
DWIDTH 8 0
BBX 5 23 1 -2
BITMAP
F8
F8
18
18
18
18
18
18
18
18
18
18
18
18
18
18
18
18
18
18
18
18
18
ENDCHAR
STARTCHAR 094
ENCODING 94
SWIDTH 1008 0
DWIDTH 14 0
BBX 10 11 2 10
BITMAP
0C00
1C00
1E00
3600
3600
3300
6300
6180
C180
C0C0
C0C0
ENDCHAR
STARTCHAR 095
ENCODING 95
SWIDTH 1152 0
DWIDTH 16 0
BBX 0 0 0 0
BITMAP
ENDCHAR
STARTCHAR 096
ENCODING 96
SWIDTH 504 0
DWIDTH 7 0
BBX 5 4 1 17
BITMAP
F0
30
18
08
ENDCHAR
STARTCHAR 097
ENCODING 97
SWIDTH 1152 0
DWIDTH 16 0
BBX 14 17 1 -1
BITMAP
0300
3FE0
7FF0
7070
6030
0030
0070
07F0
3FF0
7830
E030
C030
C030
E070
FBF8
7FBC
0C1C
ENDCHAR
STARTCHAR 098
ENCODING 98
SWIDTH 1152 0
DWIDTH 16 0
BBX 13 22 2 -1
BITMAP
C000
C000
C000
C000
C000
C300
DFE0
FFF0
F070
E038
E038
C018
C018
C018
C018
C018
E038
E038
F070
FFE0
DFC0
0700
ENDCHAR
STARTCHAR 099
ENCODING 99
SWIDTH 1080 0
DWIDTH 15 0
BBX 13 17 1 -1
BITMAP
0600
1FC0
3FE0
7070
6030
E038
E000
C000
C000
C000
E000
E038
6030
7070
3FF0
1FC0
0700
ENDCHAR
STARTCHAR 100
ENCODING 100
SWIDTH 1152 0
DWIDTH 16 0
BBX 13 22 1 -1
BITMAP
0018
0018
0018
0018
0018
0718
1FD8
3FF8
7078
6038
E018
E018
C018
C018
C018
E018
E018
6038
7078
3FF8
1FD8
0700
ENDCHAR
STARTCHAR 101
ENCODING 101
SWIDTH 1080 0
DWIDTH 15 0
BBX 14 17 1 -1
BITMAP
0700
1FE0
3FF0
7070
6038
E018
E018
FFFC
FFFC
C000
E000
E018
6038
7038
3FF0
1FE0
0780
ENDCHAR
STARTCHAR 102
ENCODING 102
SWIDTH 576 0
DWIDTH 8 0
BBX 7 21 1 0
BITMAP
1E
3E
30
30
30
30
FE
FE
30
30
30
30
30
30
30
30
30
30
30
30
30
ENDCHAR
STARTCHAR 103
ENCODING 103
SWIDTH 1152 0
DWIDTH 16 0
BBX 13 18 1 -2
BITMAP
0700
1FD8
3FF8
7078
6038
E038
E018
C018
C018
C018
E018
E038
E038
7078
3FD8
1F98
0718
0038
ENDCHAR
STARTCHAR 104
ENCODING 104
SWIDTH 1152 0
DWIDTH 16 0
BBX 12 21 2 0
BITMAP
C000
C000
C000
C000
C000
C300
DFE0
FFE0
F070
E070
C070
C070
C070
C070
C070
C070
C070
C070
C070
C070
C070
ENDCHAR
STARTCHAR 105
ENCODING 105
SWIDTH 432 0
DWIDTH 6 0
BBX 2 21 2 0
BITMAP
C0
C0
C0
00
00
00
C0
C0
C0
C0
C0
C0
C0
C0
C0
C0
C0
C0
C0
C0
C0
ENDCHAR
STARTCHAR 106
ENCODING 106
SWIDTH 504 0
DWIDTH 7 0
BBX 2 23 3 -2
BITMAP
C0
C0
C0
00
00
00
C0
C0
C0
C0
C0
C0
C0
C0
C0
C0
C0
C0
C0
C0
C0
C0
C0
ENDCHAR
STARTCHAR 107
ENCODING 107
SWIDTH 1080 0
DWIDTH 15 0
BBX 12 21 2 0
BITMAP
C000
C000
C000
C000
C000
C000
C0E0
C1C0
C380
C700
CE00
DE00
FE00
F700
E380
C380
C1C0
C1C0
C0E0
C070
C070
ENDCHAR
STARTCHAR 108
ENCODING 108
SWIDTH 432 0
DWIDTH 6 0
BBX 2 21 2 0
BITMAP
C0
C0
C0
C0
C0
C0
C0
C0
C0
C0
C0
C0
C0
C0
C0
C0
C0
C0
C0
C0
C0
ENDCHAR
STARTCHAR 109
ENCODING 109
SWIDTH 1728 0
DWIDTH 24 0
BBX 20 16 2 0
BITMAP
030300
DFCFE0
FFFFE0
E0F070
E0E070
C06070
C06070
C06070
C06070
C06070
C06070
C06070
C06070
C06070
C06070
C06070
ENDCHAR
STARTCHAR 110
ENCODING 110
SWIDTH 1152 0
DWIDTH 16 0
BBX 12 16 2 0
BITMAP
0300
CFE0
DFE0
F070
E070
C070
C070
C070
C070
C070
C070
C070
C070
C070
C070
C070
ENDCHAR
STARTCHAR 111
ENCODING 111
SWIDTH 1080 0
DWIDTH 15 0
BBX 14 17 1 -1
BITMAP
0700
1FE0
3FF0
7070
6038
E018
E018
C01C
C01C
C01C
E018
E018
6038
7070
3FF0
1FE0
0780
ENDCHAR
STARTCHAR 112
ENCODING 112
SWIDTH 1152 0
DWIDTH 16 0
BBX 13 18 2 -2
BITMAP
0300
DFC0
FFE0
F070
E038
E038
C018
C018
C018
C018
C018
E038
E038
F070
FFF0
DFE0
C700
C000
ENDCHAR
STARTCHAR 113
ENCODING 113
SWIDTH 1152 0
DWIDTH 16 0
BBX 13 18 1 -2
BITMAP
0700
1FD8
3FF8
7078
6038
E018
E018
C018
C018
C018
E018
E018
E038
7078
3FF8
1FD8
0718
0018
ENDCHAR
STARTCHAR 114
ENCODING 114
SWIDTH 720 0
DWIDTH 10 0
BBX 7 16 2 0
BITMAP
06
CE
DE
F0
E0
E0
C0
C0
C0
C0
C0
C0
C0
C0
C0
C0
ENDCHAR
STARTCHAR 115
ENCODING 115
SWIDTH 1008 0
DWIDTH 14 0
BBX 12 17 1 -1
BITMAP
0600
3FC0
7FE0
6060
E070
E000
7000
7F00
3FC0
03F0
0070
E030
E030
E070
7FE0
3FC0
0600
ENDCHAR
STARTCHAR 116
ENCODING 116
SWIDTH 576 0
DWIDTH 8 0
BBX 7 20 1 -1
BITMAP
30
30
30
30
FE
FE
30
30
30
30
30
30
30
30
30
30
30
3A
3E
1C
ENDCHAR
STARTCHAR 117
ENCODING 117
SWIDTH 1152 0
DWIDTH 16 0
BBX 12 16 2 -1
BITMAP
C070
C070
C070
C070
C070
C070
C070
C070
C070
C070
C070
C070
E0F0
FFB0
7F30
1C00
ENDCHAR
STARTCHAR 118
ENCODING 118
SWIDTH 1008 0
DWIDTH 14 0
BBX 13 15 1 0
BITMAP
C038
E030
E070
6070
7060
70E0
30E0
38C0
39C0
1980
1D80
1F80
0F00
0F00
0E00
ENDCHAR
STARTCHAR 119
ENCODING 119
SWIDTH 1512 0
DWIDTH 21 0
BBX 20 15 0 0
BITMAP
E07030
607070
70F870
70F870
30D860
30D8E0
39DCE0
199CC0
198CC0
1D8DC0
1F8FC0
0F0780
0F0780
0F0780
070700
ENDCHAR
STARTCHAR 120
ENCODING 120
SWIDTH 1008 0
DWIDTH 14 0
BBX 12 15 1 0
BITMAP
E070
60E0
70E0
39C0
1980
1F00
0F00
0F00
0F00
1F80
39C0
31C0
70E0
E070
C070
ENDCHAR
STARTCHAR 121
ENCODING 121
SWIDTH 1008 0
DWIDTH 14 0
BBX 12 17 1 -2
BITMAP
C030
C070
E070
6060
60E0
70C0
30C0
31C0
3980
1B80
1B80
1F00
0F00
0F00
0E00
0E00
0C00
ENDCHAR
STARTCHAR 122
ENCODING 122
SWIDTH 1008 0
DWIDTH 14 0
BBX 12 15 1 0
BITMAP
FFF0
FFF0
00E0
00E0
01C0
0380
0700
0E00
1C00
1C00
3800
7000
E000
FFF0
FFF0
ENDCHAR
STARTCHAR 123
ENCODING 123
SWIDTH 720 0
DWIDTH 10 0
BBX 7 23 1 -2
BITMAP
0E
1E
18
18
18
18
18
18
18
38
38
30
F0
C0
F0
30
38
38
18
18
18
18
18
ENDCHAR
STARTCHAR 124
ENCODING 124
SWIDTH 504 0
DWIDTH 7 0
BBX 2 23 3 -2
BITMAP
C0
C0
C0
C0
C0
C0
C0
C0
C0
C0
C0
C0
C0
C0
C0
C0
C0
C0
C0
C0
C0
C0
C0
ENDCHAR
STARTCHAR 125
ENCODING 125
SWIDTH 720 0
DWIDTH 10 0
BBX 6 23 2 -2
BITMAP
E0
F0
30
30
30
30
30
30
30
30
30
38
1C
0C
1C
38
30
30
30
30
30
30
30
ENDCHAR
STARTCHAR 126
ENCODING 126
SWIDTH 1080 0
DWIDTH 15 0
BBX 13 5 1 8
BITMAP
3000
7C18
CF10
C3F0
C1E0
ENDCHAR
STARTCHAR 127
ENCODING 127
SWIDTH 1656 0
DWIDTH 23 0
BBX 21 25 1 -2
BITMAP
FFFFF8
FFFFF8
C03018
C1FE18
C3FF18
C70718
C60398
C60398
CE0398
C00398
C00718
C00F18
C01E18
C03C18
C03818
C07018
C07018
C07018
C00018
C00018
C00018
C07018
C07018
C07018
C00018
ENDCHAR
STARTCHAR 128
ENCODING 128
SWIDTH 1656 0
DWIDTH 23 0
BBX 21 25 1 -2
BITMAP
FFFFF8
FFFFF8
C03018
C1FE18
C3FF18
C70718
C60398
C60398
CE0398
C00398
C00718
C00F18
C01E18
C03C18
C03818
C07018
C07018
C07018
C00018
C00018
C00018
C07018
C07018
C07018
C00018
ENDCHAR
STARTCHAR 129
ENCODING 129
SWIDTH 1656 0
DWIDTH 23 0
BBX 21 25 1 -2
BITMAP
FFFFF8
FFFFF8
C03018
C1FE18
C3FF18
C70718
C60398
C60398
CE0398
C00398
C00718
C00F18
C01E18
C03C18
C03818
C07018
C07018
C07018
C00018
C00018
C00018
C07018
C07018
C07018
C00018
ENDCHAR
STARTCHAR 130
ENCODING 130
SWIDTH 1656 0
DWIDTH 23 0
BBX 21 25 1 -2
BITMAP
FFFFF8
FFFFF8
C03018
C1FE18
C3FF18
C70718
C60398
C60398
CE0398
C00398
C00718
C00F18
C01E18
C03C18
C03818
C07018
C07018
C07018
C00018
C00018
C00018
C07018
C07018
C07018
C00018
ENDCHAR
STARTCHAR 131
ENCODING 131
SWIDTH 1656 0
DWIDTH 23 0
BBX 21 25 1 -2
BITMAP
FFFFF8
FFFFF8
C03018
C1FE18
C3FF18
C70718
C60398
C60398
CE0398
C00398
C00718
C00F18
C01E18
C03C18
C03818
C07018
C07018
C07018
C00018
C00018
C00018
C07018
C07018
C07018
C00018
ENDCHAR
STARTCHAR 132
ENCODING 132
SWIDTH 1656 0
DWIDTH 23 0
BBX 21 25 1 -2
BITMAP
FFFFF8
FFFFF8
C03018
C1FE18
C3FF18
C70718
C60398
C60398
CE0398
C00398
C00718
C00F18
C01E18
C03C18
C03818
C07018
C07018
C07018
C00018
C00018
C00018
C07018
C07018
C07018
C00018
ENDCHAR
STARTCHAR 133
ENCODING 133
SWIDTH 1656 0
DWIDTH 23 0
BBX 21 25 1 -2
BITMAP
FFFFF8
FFFFF8
C03018
C1FE18
C3FF18
C70718
C60398
C60398
CE0398
C00398
C00718
C00F18
C01E18
C03C18
C03818
C07018
C07018
C07018
C00018
C00018
C00018
C07018
C07018
C07018
C00018
ENDCHAR
STARTCHAR 134
ENCODING 134
SWIDTH 1656 0
DWIDTH 23 0
BBX 21 25 1 -2
BITMAP
FFFFF8
FFFFF8
C03018
C1FE18
C3FF18
C70718
C60398
C60398
CE0398
C00398
C00718
C00F18
C01E18
C03C18
C03818
C07018
C07018
C07018
C00018
C00018
C00018
C07018
C07018
C07018
C00018
ENDCHAR
STARTCHAR 135
ENCODING 135
SWIDTH 1656 0
DWIDTH 23 0
BBX 21 25 1 -2
BITMAP
FFFFF8
FFFFF8
C03018
C1FE18
C3FF18
C70718
C60398
C60398
CE0398
C00398
C00718
C00F18
C01E18
C03C18
C03818
C07018
C07018
C07018
C00018
C00018
C00018
C07018
C07018
C07018
C00018
ENDCHAR
STARTCHAR 136
ENCODING 136
SWIDTH 1656 0
DWIDTH 23 0
BBX 21 25 1 -2
BITMAP
FFFFF8
FFFFF8
C03018
C1FE18
C3FF18
C70718
C60398
C60398
CE0398
C00398
C00718
C00F18
C01E18
C03C18
C03818
C07018
C07018
C07018
C00018
C00018
C00018
C07018
C07018
C07018
C00018
ENDCHAR
STARTCHAR 137
ENCODING 137
SWIDTH 1656 0
DWIDTH 23 0
BBX 21 25 1 -2
BITMAP
FFFFF8
FFFFF8
C03018
C1FE18
C3FF18
C70718
C60398
C60398
CE0398
C00398
C00718
C00F18
C01E18
C03C18
C03818
C07018
C07018
C07018
C00018
C00018
C00018
C07018
C07018
C07018
C00018
ENDCHAR
STARTCHAR 138
ENCODING 138
SWIDTH 1656 0
DWIDTH 23 0
BBX 21 25 1 -2
BITMAP
FFFFF8
FFFFF8
C03018
C1FE18
C3FF18
C70718
C60398
C60398
CE0398
C00398
C00718
C00F18
C01E18
C03C18
C03818
C07018
C07018
C07018
C00018
C00018
C00018
C07018
C07018
C07018
C00018
ENDCHAR
STARTCHAR 139
ENCODING 139
SWIDTH 1656 0
DWIDTH 23 0
BBX 21 25 1 -2
BITMAP
FFFFF8
FFFFF8
C03018
C1FE18
C3FF18
C70718
C60398
C60398
CE0398
C00398
C00718
C00F18
C01E18
C03C18
C03818
C07018
C07018
C07018
C00018
C00018
C00018
C07018
C07018
C07018
C00018
ENDCHAR
STARTCHAR 140
ENCODING 140
SWIDTH 1656 0
DWIDTH 23 0
BBX 21 25 1 -2
BITMAP
FFFFF8
FFFFF8
C03018
C1FE18
C3FF18
C70718
C60398
C60398
CE0398
C00398
C00718
C00F18
C01E18
C03C18
C03818
C07018
C07018
C07018
C00018
C00018
C00018
C07018
C07018
C07018
C00018
ENDCHAR
STARTCHAR 141
ENCODING 141
SWIDTH 1656 0
DWIDTH 23 0
BBX 21 25 1 -2
BITMAP
FFFFF8
FFFFF8
C03018
C1FE18
C3FF18
C70718
C60398
C60398
CE0398
C00398
C00718
C00F18
C01E18
C03C18
C03818
C07018
C07018
C07018
C00018
C00018
C00018
C07018
C07018
C07018
C00018
ENDCHAR
STARTCHAR 142
ENCODING 142
SWIDTH 1656 0
DWIDTH 23 0
BBX 21 25 1 -2
BITMAP
FFFFF8
FFFFF8
C03018
C1FE18
C3FF18
C70718
C60398
C60398
CE0398
C00398
C00718
C00F18
C01E18
C03C18
C03818
C07018
C07018
C07018
C00018
C00018
C00018
C07018
C07018
C07018
C00018
ENDCHAR
STARTCHAR 143
ENCODING 143
SWIDTH 1656 0
DWIDTH 23 0
BBX 21 25 1 -2
BITMAP
FFFFF8
FFFFF8
C03018
C1FE18
C3FF18
C70718
C60398
C60398
CE0398
C00398
C00718
C00F18
C01E18
C03C18
C03818
C07018
C07018
C07018
C00018
C00018
C00018
C07018
C07018
C07018
C00018
ENDCHAR
STARTCHAR 144
ENCODING 144
SWIDTH 1656 0
DWIDTH 23 0
BBX 21 25 1 -2
BITMAP
FFFFF8
FFFFF8
C03018
C1FE18
C3FF18
C70718
C60398
C60398
CE0398
C00398
C00718
C00F18
C01E18
C03C18
C03818
C07018
C07018
C07018
C00018
C00018
C00018
C07018
C07018
C07018
C00018
ENDCHAR
STARTCHAR 145
ENCODING 145
SWIDTH 1656 0
DWIDTH 23 0
BBX 21 25 1 -2
BITMAP
FFFFF8
FFFFF8
C03018
C1FE18
C3FF18
C70718
C60398
C60398
CE0398
C00398
C00718
C00F18
C01E18
C03C18
C03818
C07018
C07018
C07018
C00018
C00018
C00018
C07018
C07018
C07018
C00018
ENDCHAR
STARTCHAR 146
ENCODING 146
SWIDTH 1656 0
DWIDTH 23 0
BBX 21 25 1 -2
BITMAP
FFFFF8
FFFFF8
C03018
C1FE18
C3FF18
C70718
C60398
C60398
CE0398
C00398
C00718
C00F18
C01E18
C03C18
C03818
C07018
C07018
C07018
C00018
C00018
C00018
C07018
C07018
C07018
C00018
ENDCHAR
STARTCHAR 147
ENCODING 147
SWIDTH 1656 0
DWIDTH 23 0
BBX 21 25 1 -2
BITMAP
FFFFF8
FFFFF8
C03018
C1FE18
C3FF18
C70718
C60398
C60398
CE0398
C00398
C00718
C00F18
C01E18
C03C18
C03818
C07018
C07018
C07018
C00018
C00018
C00018
C07018
C07018
C07018
C00018
ENDCHAR
STARTCHAR 148
ENCODING 148
SWIDTH 1656 0
DWIDTH 23 0
BBX 21 25 1 -2
BITMAP
FFFFF8
FFFFF8
C03018
C1FE18
C3FF18
C70718
C60398
C60398
CE0398
C00398
C00718
C00F18
C01E18
C03C18
C03818
C07018
C07018
C07018
C00018
C00018
C00018
C07018
C07018
C07018
C00018
ENDCHAR
STARTCHAR 149
ENCODING 149
SWIDTH 1656 0
DWIDTH 23 0
BBX 21 25 1 -2
BITMAP
FFFFF8
FFFFF8
C03018
C1FE18
C3FF18
C70718
C60398
C60398
CE0398
C00398
C00718
C00F18
C01E18
C03C18
C03818
C07018
C07018
C07018
C00018
C00018
C00018
C07018
C07018
C07018
C00018
ENDCHAR
STARTCHAR 150
ENCODING 150
SWIDTH 1656 0
DWIDTH 23 0
BBX 21 25 1 -2
BITMAP
FFFFF8
FFFFF8
C03018
C1FE18
C3FF18
C70718
C60398
C60398
CE0398
C00398
C00718
C00F18
C01E18
C03C18
C03818
C07018
C07018
C07018
C00018
C00018
C00018
C07018
C07018
C07018
C00018
ENDCHAR
STARTCHAR 151
ENCODING 151
SWIDTH 1656 0
DWIDTH 23 0
BBX 21 25 1 -2
BITMAP
FFFFF8
FFFFF8
C03018
C1FE18
C3FF18
C70718
C60398
C60398
CE0398
C00398
C00718
C00F18
C01E18
C03C18
C03818
C07018
C07018
C07018
C00018
C00018
C00018
C07018
C07018
C07018
C00018
ENDCHAR
STARTCHAR 152
ENCODING 152
SWIDTH 1656 0
DWIDTH 23 0
BBX 21 25 1 -2
BITMAP
FFFFF8
FFFFF8
C03018
C1FE18
C3FF18
C70718
C60398
C60398
CE0398
C00398
C00718
C00F18
C01E18
C03C18
C03818
C07018
C07018
C07018
C00018
C00018
C00018
C07018
C07018
C07018
C00018
ENDCHAR
STARTCHAR 153
ENCODING 153
SWIDTH 1656 0
DWIDTH 23 0
BBX 21 25 1 -2
BITMAP
FFFFF8
FFFFF8
C03018
C1FE18
C3FF18
C70718
C60398
C60398
CE0398
C00398
C00718
C00F18
C01E18
C03C18
C03818
C07018
C07018
C07018
C00018
C00018
C00018
C07018
C07018
C07018
C00018
ENDCHAR
STARTCHAR 154
ENCODING 154
SWIDTH 1656 0
DWIDTH 23 0
BBX 21 25 1 -2
BITMAP
FFFFF8
FFFFF8
C03018
C1FE18
C3FF18
C70718
C60398
C60398
CE0398
C00398
C00718
C00F18
C01E18
C03C18
C03818
C07018
C07018
C07018
C00018
C00018
C00018
C07018
C07018
C07018
C00018
ENDCHAR
STARTCHAR 155
ENCODING 155
SWIDTH 1656 0
DWIDTH 23 0
BBX 21 25 1 -2
BITMAP
FFFFF8
FFFFF8
C03018
C1FE18
C3FF18
C70718
C60398
C60398
CE0398
C00398
C00718
C00F18
C01E18
C03C18
C03818
C07018
C07018
C07018
C00018
C00018
C00018
C07018
C07018
C07018
C00018
ENDCHAR
STARTCHAR 156
ENCODING 156
SWIDTH 1656 0
DWIDTH 23 0
BBX 21 25 1 -2
BITMAP
FFFFF8
FFFFF8
C03018
C1FE18
C3FF18
C70718
C60398
C60398
CE0398
C00398
C00718
C00F18
C01E18
C03C18
C03818
C07018
C07018
C07018
C00018
C00018
C00018
C07018
C07018
C07018
C00018
ENDCHAR
STARTCHAR 157
ENCODING 157
SWIDTH 1656 0
DWIDTH 23 0
BBX 21 25 1 -2
BITMAP
FFFFF8
FFFFF8
C03018
C1FE18
C3FF18
C70718
C60398
C60398
CE0398
C00398
C00718
C00F18
C01E18
C03C18
C03818
C07018
C07018
C07018
C00018
C00018
C00018
C07018
C07018
C07018
C00018
ENDCHAR
STARTCHAR 158
ENCODING 158
SWIDTH 1656 0
DWIDTH 23 0
BBX 21 25 1 -2
BITMAP
FFFFF8
FFFFF8
C03018
C1FE18
C3FF18
C70718
C60398
C60398
CE0398
C00398
C00718
C00F18
C01E18
C03C18
C03818
C07018
C07018
C07018
C00018
C00018
C00018
C07018
C07018
C07018
C00018
ENDCHAR
STARTCHAR 159
ENCODING 159
SWIDTH 1656 0
DWIDTH 23 0
BBX 21 25 1 -2
BITMAP
FFFFF8
FFFFF8
C03018
C1FE18
C3FF18
C70718
C60398
C60398
CE0398
C00398
C00718
C00F18
C01E18
C03C18
C03818
C07018
C07018
C07018
C00018
C00018
C00018
C07018
C07018
C07018
C00018
ENDCHAR
STARTCHAR 160
ENCODING 160
SWIDTH 576 0
DWIDTH 8 0
BBX 0 0 0 0
BITMAP
ENDCHAR
STARTCHAR 161
ENCODING 161
SWIDTH 720 0
DWIDTH 10 0
BBX 2 17 4 -2
BITMAP
C0
C0
C0
00
00
80
80
C0
C0
C0
C0
C0
C0
C0
C0
C0
C0
ENDCHAR
STARTCHAR 162
ENCODING 162
SWIDTH 1152 0
DWIDTH 16 0
BBX 13 20 2 -2
BITMAP
0200
0200
0700
1FC0
3FE0
7270
E230
C238
C200
C200
C200
C200
C200
C238
E238
7270
7FF0
1FC0
0700
0200
ENDCHAR
STARTCHAR 163
ENCODING 163
SWIDTH 1152 0
DWIDTH 16 0
BBX 14 22 1 -1
BITMAP
0FE0
1FF0
3878
7038
601C
601C
601C
7000
7000
3800
FFC0
FFC0
1C00
0C00
0C00
1C00
1800
3000
6F84
FFFC
73FC
0070
ENDCHAR
STARTCHAR 164
ENCODING 164
SWIDTH 1152 0
DWIDTH 16 0
BBX 12 12 2 4
BITMAP
4020
FFF0
7FF0
71E0
6060
6060
6060
6060
70E0
7FE0
FFF0
4020
ENDCHAR
STARTCHAR 165
ENCODING 165
SWIDTH 1152 0
DWIDTH 16 0
BBX 16 21 0 0
BITMAP
E007
6006
700E
380C
181C
1C18
0C30
0E70
0660
03E0
03C0
3FFC
0180
0180
3FFC
3FFC
0180
0180
0180
0180
0180
ENDCHAR
STARTCHAR 166
ENCODING 166
SWIDTH 576 0
DWIDTH 8 0
BBX 2 23 3 -2
BITMAP
C0
C0
C0
C0
C0
C0
C0
C0
C0
C0
C0
00
00
00
00
00
C0
C0
C0
C0
C0
C0
C0
ENDCHAR
STARTCHAR 167
ENCODING 167
SWIDTH 1152 0
DWIDTH 16 0
BBX 14 23 1 -2
BITMAP
07C0
1FE0
1C70
3830
3830
3830
3C00
1E00
3F80
63E0
E1F0
E078
E038
E01C
781C
3C1C
1E18
0FB8
03E0
01E0
0070
7070
7070
ENDCHAR
STARTCHAR 168
ENCODING 168
SWIDTH 720 0
DWIDTH 10 0
BBX 8 3 1 18
BITMAP
E7
E7
E7
ENDCHAR
STARTCHAR 169
ENCODING 169
SWIDTH 1656 0
DWIDTH 23 0
BBX 21 21 1 0
BITMAP
003000
03FE00
0F0780
1C01C0
387860
31FC70
638E30
630618
C60018
C60018
C60018
C60018
C60318
C60318
630610
63CE30
31FC70
3820E0
1C01C0
078F80
03FE00
ENDCHAR
STARTCHAR 170
ENCODING 170
SWIDTH 792 0
DWIDTH 11 0
BBX 9 12 1 9
BITMAP
7E00
6300
C300
0700
7F00
C300
C300
C700
7F80
0000
0000
FF00
ENDCHAR
STARTCHAR 171
ENCODING 171
SWIDTH 1080 0
DWIDTH 15 0
BBX 10 8 2 4
BITMAP
1040
30C0
E380
C300
C300
E380
71C0
1040
ENDCHAR
STARTCHAR 172
ENCODING 172
SWIDTH 1224 0
DWIDTH 17 0
BBX 15 9 1 2
BITMAP
FFFE
FFFE
0006
0006
0006
0006
0006
0006
0006
ENDCHAR
STARTCHAR 173
ENCODING 173
SWIDTH 720 0
DWIDTH 10 0
BBX 7 2 1 7
BITMAP
FE
FE
ENDCHAR
STARTCHAR 174
ENCODING 174
SWIDTH 1656 0
DWIDTH 23 0
BBX 21 21 1 0
BITMAP
003000
03FE00
0F0780
1C01C0
380060
33FE70
630630
630618
C30218
C30618
C3FC18
C3FE18
C30618
C30618
630610
630630
330370
3800E0
1C01C0
078F80
03FE00
ENDCHAR
STARTCHAR 175
ENCODING 175
SWIDTH 720 0
DWIDTH 10 0
BBX 8 2 1 18
BITMAP
FF
FF
ENDCHAR
STARTCHAR 176
ENCODING 176
SWIDTH 1296 0
DWIDTH 18 0
BBX 9 9 4 11
BITMAP
1E00
3F00
6180
C180
C180
C180
6180
3F00
1E00
ENDCHAR
STARTCHAR 177
ENCODING 177
SWIDTH 1224 0
DWIDTH 17 0
BBX 14 18 1 0
BITMAP
0300
0300
0300
0300
0300
0300
FFFC
FFFC
0300
0300
0300
0300
0300
0300
0000
0000
FFFC
FFFC
ENDCHAR
STARTCHAR 178
ENCODING 178
SWIDTH 720 0
DWIDTH 10 0
BBX 8 13 1 11
BITMAP
18
7E
C3
C1
C1
03
06
1C
70
E0
C0
FF
FF
ENDCHAR
STARTCHAR 179
ENCODING 179
SWIDTH 720 0
DWIDTH 10 0
BBX 9 13 0 11
BITMAP
0C00
3F00
6180
6180
0180
0F00
0F00
0180
0180
C180
6180
7F80
3E00
ENDCHAR
STARTCHAR 180
ENCODING 180
SWIDTH 720 0
DWIDTH 10 0
BBX 5 4 3 17
BITMAP
38
70
60
C0
ENDCHAR
STARTCHAR 181
ENCODING 181
SWIDTH 1152 0
DWIDTH 16 0
BBX 14 17 2 -2
BITMAP
C030
C030
C030
C030
C030
C030
C030
C030
C030
C070
C070
C070
E0F0
FBB8
FF3C
DC18
C000
ENDCHAR
STARTCHAR 182
ENCODING 182
SWIDTH 1152 0
DWIDTH 16 0
BBX 14 23 1 -2
BITMAP
0FFC
1FFC
3F10
7F10
7F10
FF10
FF10
FF10
7F10
7F10
7F10
3F10
1F10
0310
0310
0310
0310
0310
0310
0310
0310
0310
0310
ENDCHAR
STARTCHAR 183
ENCODING 183
SWIDTH 504 0
DWIDTH 7 0
BBX 3 3 3 7
BITMAP
E0
E0
E0
ENDCHAR
STARTCHAR 184
ENCODING 184
SWIDTH 720 0
DWIDTH 10 0
BBX 2 2 4 -2
BITMAP
40
80
ENDCHAR
STARTCHAR 185
ENCODING 185
SWIDTH 720 0
DWIDTH 10 0
BBX 5 13 2 11
BITMAP
18
18
38
F8
18
18
18
18
18
18
18
18
18
ENDCHAR
STARTCHAR 186
ENCODING 186
SWIDTH 792 0
DWIDTH 11 0
BBX 8 12 1 9
BITMAP
3E
63
C3
C1
C1
C1
C3
63
3E
00
00
FF
ENDCHAR
STARTCHAR 187
ENCODING 187
SWIDTH 1080 0
DWIDTH 15 0
BBX 10 9 2 4
BITMAP
8200
C300
E380
71C0
1840
38C0
71C0
E380
C300
ENDCHAR
STARTCHAR 188
ENCODING 188
SWIDTH 1800 0
DWIDTH 25 0
BBX 23 22 2 -1
BITMAP
100040
1000C0
F00180
F00100
100300
100600
100600
100C00
100800
101818
103038
102078
0060D8
004098
00C198
018318
010618
0307FE
060018
060018
0C0018
080000
ENDCHAR
STARTCHAR 189
ENCODING 189
SWIDTH 1800 0
DWIDTH 25 0
BBX 22 22 2 -1
BITMAP
1000C0
300180
F00100
F00300
100600
100600
100C00
100800
101800
1031F8
10239C
10630C
00C304
00C00C
01801C
010078
0300E0
060180
040300
0C03FC
1803FC
180000
ENDCHAR
STARTCHAR 190
ENCODING 190
SWIDTH 1800 0
DWIDTH 25 0
BBX 23 22 1 -1
BITMAP
7E0020
670060
C300C0
C30080
030180
1E0300
0F0300
010600
C18400
C18C18
E31818
7E1038
003078
0060D8
006198
00C198
008318
0183FE
030018
020018
060018
0C0000
ENDCHAR
STARTCHAR 191
ENCODING 191
SWIDTH 1152 0
DWIDTH 16 0
BBX 12 17 3 -2
BITMAP
0700
0700
0700
0000
0000
0000
0700
0700
0600
0E00
1C00
3800
7000
E000
E000
C030
E030
ENDCHAR
STARTCHAR 192
ENCODING 192
SWIDTH 1368 0
DWIDTH 19 0
BBX 18 26 1 0
BITMAP
078000
018000
00C000
006000
000000
01E000
03E000
03E000
037000
077000
073000
063800
0E3800
0E1800
0C1C00
1C1C00
1C0E00
3FFE00
3FFE00
3FFF00
700700
700700
700380
E00380
E00380
E001C0
ENDCHAR
STARTCHAR 193
ENCODING 193
SWIDTH 1368 0
DWIDTH 19 0
BBX 18 26 1 0
BITMAP
007800
006000
00C000
018000
000000
01E000
03E000
03E000
037000
077000
073000
063800
0E3800
0E1800
0C1C00
1C1C00
1C0E00
3FFE00
3FFE00
3FFF00
700700
700700
700380
E00380
E00380
E001C0
ENDCHAR
STARTCHAR 194
ENCODING 194
SWIDTH 1368 0
DWIDTH 19 0
BBX 18 26 1 0
BITMAP
01E000
03E000
073000
041800
000000
01E000
03E000
03E000
037000
077000
073000
063800
0E3800
0E1800
0C1C00
1C1C00
1C0E00
3FFE00
3FFE00
3FFF00
700700
700700
700380
E00380
E00380
E001C0
ENDCHAR
STARTCHAR 195
ENCODING 195
SWIDTH 1368 0
DWIDTH 19 0
BBX 18 26 1 0
BITMAP
030800
07F800
0CF000
000000
000000
01E000
03E000
03E000
037000
077000
073000
063800
0E3800
0E1800
0C1C00
1C1C00
1C0E00
3FFE00
3FFE00
3FFF00
700700
700700
700380
E00380
E00380
E001C0
ENDCHAR
STARTCHAR 196
ENCODING 196
SWIDTH 1368 0
DWIDTH 19 0
BBX 18 26 1 0
BITMAP
073800
073800
073800
000000
000000
01E000
03E000
03E000
037000
077000
073000
063800
0E3800
0E1C00
0C1C00
1C1C00
1C0E00
3FFE00
3FFE00
3FFF00
700700
700700
700380
E00380
E00380
C001C0
ENDCHAR
STARTCHAR 197
ENCODING 197
SWIDTH 1368 0
DWIDTH 19 0
BBX 18 26 1 0
BITMAP
033000
033000
03E000
01E000
000000
01E000
03E000
03E000
037000
077000
073000
063800
0E3800
0E1800
0C1C00
1C1C00
1C0E00
3FFE00
3FFE00
3FFF00
700700
700700
700380
E00380
E00380
E001C0
ENDCHAR
STARTCHAR 198
ENCODING 198
SWIDTH 2088 0
DWIDTH 29 0
BBX 27 21 1 0
BITMAP
00FFFFC0
01FFFFC0
01C60000
01860000
03860000
03860000
07060000
07060000
06060000
0E07FFC0
0E07FFC0
1C060000
1FFE0000
3FFE0000
3FFE0000
38060000
70060000
70060000
E0060000
E007FFE0
E007FFE0
ENDCHAR
STARTCHAR 199
ENCODING 199
SWIDTH 1512 0
DWIDTH 21 0
BBX 18 23 1 -2
BITMAP
07FC00
0FFF00
1E0700
380380
300180
7001C0
600000
E00000
E00000
E00000
E00000
E00000
E00000
E000C0
6001C0
7001C0
7001C0
380380
1C0780
0FFF00
07FE00
01F000
008000
ENDCHAR
STARTCHAR 200
ENCODING 200
SWIDTH 1296 0
DWIDTH 18 0
BBX 15 26 2 0
BITMAP
0F00
0380
01C0
0040
0000
FFFE
FFFE
E000
E000
E000
E000
E000
E000
E000
FFFE
FFFE
E000
E000
E000
E000
E000
E000
E000
E000
FFFE
FFFE
ENDCHAR
STARTCHAR 201
ENCODING 201
SWIDTH 1296 0
DWIDTH 18 0
BBX 15 26 2 0
BITMAP
01E0
0180
0300
0600
0000
FFFE
FFFE
E000
E000
E000
E000
E000
E000
E000
FFFE
FFFE
E000
E000
E000
E000
E000
E000
E000
E000
FFFE
FFFE
ENDCHAR
STARTCHAR 202
ENCODING 202
SWIDTH 1296 0
DWIDTH 18 0
BBX 15 26 2 0
BITMAP
03C0
07C0
0E60
0830
0000
FFFE
FFFE
E000
E000
E000
E000
E000
E000
E000
FFFE
FFFE
E000
E000
E000
E000
E000
E000
E000
E000
FFFE
FFFE
ENDCHAR
STARTCHAR 203
ENCODING 203
SWIDTH 1296 0
DWIDTH 18 0
BBX 15 26 2 0
BITMAP
0E70
0E70
0E70
0000
0000
FFFE
FFFE
E000
E000
E000
E000
E000
E000
E000
FFFE
FFFE
E000
E000
E000
E000
E000
E000
E000
E000
FFFE
FFFE
ENDCHAR
STARTCHAR 204
ENCODING 204
SWIDTH 576 0
DWIDTH 8 0
BBX 6 26 1 0
BITMAP
E0
70
38
0C
00
38
38
38
38
38
38
38
38
38
38
38
38
38
38
38
38
38
38
38
38
38
ENDCHAR
STARTCHAR 205
ENCODING 205
SWIDTH 576 0
DWIDTH 8 0
BBX 6 26 1 0
BITMAP
1C
38
70
C0
00
38
38
38
38
38
38
38
38
38
38
38
38
38
38
38
38
38
38
38
38
38
ENDCHAR
STARTCHAR 206
ENCODING 206
SWIDTH 648 0
DWIDTH 9 0
BBX 9 26 0 0
BITMAP
1C00
3E00
6700
C180
0000
1C00
1C00
1C00
1C00
1C00
1C00
1C00
1C00
1C00
1C00
1C00
1C00
1C00
1C00
1C00
1C00
1C00
1C00
1C00
1C00
1C00
ENDCHAR
STARTCHAR 207
ENCODING 207
SWIDTH 648 0
DWIDTH 9 0
BBX 8 26 0 0
BITMAP
E7
E7
E7
00
00
1C
1C
1C
1C
1C
1C
1C
1C
1C
1C
1C
1C
1C
1C
1C
1C
1C
1C
1C
1C
1C
ENDCHAR
STARTCHAR 208
ENCODING 208
SWIDTH 1512 0
DWIDTH 21 0
BBX 18 21 1 0
BITMAP
3FF800
3FFE00
301F00
300780
300380
3001C0
3001C0
3001C0
3000C0
FF80C0
FF80C0
3000C0
3001C0
3001C0
3001C0
3001C0
300380
300780
301F00
3FFE00
3FF800
ENDCHAR
STARTCHAR 209
ENCODING 209
SWIDTH 1512 0
DWIDTH 21 0
BBX 17 25 2 0
BITMAP
079800
0FF000
0C7000
000000
F00380
F00380
F80380
FC0380
FC0380
EE0380
E70380
E70380
E38380
E38380
E1C380
E0E380
E0E380
E07380
E03B80
E03B80
E01F80
E00F80
E00F80
E00780
E00780
ENDCHAR
STARTCHAR 210
ENCODING 210
SWIDTH 1656 0
DWIDTH 23 0
BBX 21 27 1 -1
BITMAP
01C000
00E000
007000
001800
000000
03FE00
0FFF80
1E07C0
3C01E0
3800E0
700070
700070
E00070
E00030
E00038
E00038
E00038
E00030
E00030
700070
700070
7800E0
3C01E0
1E03C0
0FFF80
07FE00
00F800
ENDCHAR
STARTCHAR 211
ENCODING 211
SWIDTH 1656 0
DWIDTH 23 0
BBX 21 27 1 -1
BITMAP
001C00
003800
006000
00C000
000000
03FE00
0FFF80
1E07C0
3C01E0
3800E0
700070
700070
E00070
E00030
E00038
E00038
E00038
E00030
E00030
700070
700070
7800E0
3C01E0
1E03C0
0FFF80
07FE00
00F800
ENDCHAR
STARTCHAR 212
ENCODING 212
SWIDTH 1656 0
DWIDTH 23 0
BBX 21 27 1 -1
BITMAP
007000
00F800
019C00
030600
000000
03FE00
0FFF80
1E07C0
3C01E0
3800E0
700070
700070
E00070
E00030
E00038
E00038
E00038
E00030
E00030
700070
700070
7800E0
3C01E0
1E03C0
0FFF80
07FE00
00F800
ENDCHAR
STARTCHAR 213
ENCODING 213
SWIDTH 1656 0
DWIDTH 23 0
BBX 21 27 1 -1
BITMAP
008600
03FE00
037C00
000000
000000
03FE00
0FFF80
1E07C0
3C01E0
3800E0
700070
700070
E00070
E00030
E00038
E00038
E00038
E00030
E00030
700070
700070
7800E0
3C01E0
1E03C0
0FFF80
07FE00
00F800
ENDCHAR
STARTCHAR 214
ENCODING 214
SWIDTH 1656 0
DWIDTH 23 0
BBX 21 27 1 -1
BITMAP
039C00
039C00
039C00
000000
000000
03FE00
0FFF80
1E07C0
3C01E0
3800E0
700070
700070
E00070
E00030
E00038
E00038
E00038
E00030
E00030
700070
700070
7800E0
3C01E0
1E03C0
0FFF80
07FE00
00F800
ENDCHAR
STARTCHAR 215
ENCODING 215
SWIDTH 1224 0
DWIDTH 17 0
BBX 11 11 3 1
BITMAP
C060
E0E0
71C0
3B80
1F00
0E00
1F00
3B80
71C0
E0E0
4040
ENDCHAR
STARTCHAR 216
ENCODING 216
SWIDTH 1656 0
DWIDTH 23 0
BBX 21 23 1 -1
BITMAP
000010
03FE30
0FFFF0
1E07E0
3C01E0
3801E0
700370
700670
E00C70
E01830
E03038
E06038
E0C038
E18030
E30030
770070
760070
7C00E0
3C01E0
3E03C0
6FFF80
C7FE00
00F000
ENDCHAR
STARTCHAR 217
ENCODING 217
SWIDTH 1512 0
DWIDTH 21 0
BBX 17 27 2 -1
BITMAP
078000
038000
00C000
006000
000000
E00380
E00380
E00380
E00380
E00380
E00380
E00380
E00380
E00380
E00380
E00380
E00380
E00380
E00380
E00380
E00380
E00300
700700
780F00
3FFE00
1FF800
01E000
ENDCHAR
STARTCHAR 218
ENCODING 218
SWIDTH 1512 0
DWIDTH 21 0
BBX 17 27 2 -1
BITMAP
007000
00E000
018000
030000
000000
E00380
E00380
E00380
E00380
E00380
E00380
E00380
E00380
E00380
E00380
E00380
E00380
E00380
E00380
E00380
E00380
E00300
700700
780F00
3FFE00
1FF800
01E000
ENDCHAR
STARTCHAR 219
ENCODING 219
SWIDTH 1512 0
DWIDTH 21 0
BBX 17 27 2 -1
BITMAP
01C000
03E000
077000
0C1800
000000
E00380
E00380
E00380
E00380
E00380
E00380
E00380
E00380
E00380
E00380
E00380
E00380
E00380
E00380
E00380
E00380
E00300
700700
780F00
3FFE00
1FF800
01E000
ENDCHAR
STARTCHAR 220
ENCODING 220
SWIDTH 1512 0
DWIDTH 21 0
BBX 17 27 2 -1
BITMAP
073800
073800
073800
000000
000000
E00380
E00380
E00380
E00380
E00380
E00380
E00380
E00380
E00380
E00380
E00380
E00380
E00380
E00380
E00380
E00380
E00300
700700
780F00
3FFE00
1FF800
01E000
ENDCHAR
STARTCHAR 221
ENCODING 221
SWIDTH 1440 0
DWIDTH 20 0
BBX 18 26 1 0
BITMAP
007800
00E000
01C000
010000
000000
E001C0
F00380
700780
380700
3C0E00
1C0E00
0E1C00
0E1C00
073800
03F000
03F000
01E000
01C000
00C000
00C000
00C000
00C000
00C000
00C000
00C000
00C000
ENDCHAR
STARTCHAR 222
ENCODING 222
SWIDTH 1368 0
DWIDTH 19 0
BBX 16 21 2 0
BITMAP
E000
E000
E000
FFC0
FFF8
FFFC
E01E
E00E
E006
E007
E00E
E00E
E01E
FFFC
FFF8
FFC0
E000
E000
E000
E000
E000
ENDCHAR
STARTCHAR 223
ENCODING 223
SWIDTH 1224 0
DWIDTH 17 0
BBX 14 22 2 -1
BITMAP
1FC0
3FF0
7870
7038
E038
E018
E038
E038
E1F0
E3E0
E3F8
E038
E01C
E01C
E01C
E01C
E01C
E01C
E038
E7F0
E7E0
0300
ENDCHAR
STARTCHAR 224
ENCODING 224
SWIDTH 1152 0
DWIDTH 16 0
BBX 14 22 1 -1
BITMAP
1E00
0600
0300
0180
0000
0300
3FE0
7FF0
7070
6030
0030
0070
07F0
3FF0
7830
E030
C030
C030
E070
FBF8
7FBC
0C1C
ENDCHAR
STARTCHAR 225
ENCODING 225
SWIDTH 1152 0
DWIDTH 16 0
BBX 14 22 1 -1
BITMAP
03C0
0300
0600
0400
0000
0300
3FE0
7FF0
7070
6030
0030
0070
07F0
3FF0
7830
E030
C030
C030
E070
FBF8
7FBC
0C1C
ENDCHAR
STARTCHAR 226
ENCODING 226
SWIDTH 1152 0
DWIDTH 16 0
BBX 14 22 1 -1
BITMAP
0780
0780
0CC0
1860
0000
0300
3FE0
7FF0
7070
6030
0030
0070
07F0
3FF0
7830
E030
C030
C030
E070
FBF8
7FBC
0C1C
ENDCHAR
STARTCHAR 227
ENCODING 227
SWIDTH 1152 0
DWIDTH 16 0
BBX 14 22 1 -1
BITMAP
0830
1FE0
1BE0
0000
0000
0300
3FE0
7FF0
7070
6030
0030
0070
07F0
3FF0
7830
E030
C030
C030
E070
FBF8
7FBC
0C1C
ENDCHAR
STARTCHAR 228
ENCODING 228
SWIDTH 1152 0
DWIDTH 16 0
BBX 14 22 1 -1
BITMAP
1CE0
1CE0
1CE0
0000
0000
0300
3FE0
7FF0
7070
6030
0030
0070
07F0
3FF0
7830
E030
C030
C030
E070
FBF8
7FBC
0C1C
ENDCHAR
STARTCHAR 229
ENCODING 229
SWIDTH 1152 0
DWIDTH 16 0
BBX 14 23 1 -1
BITMAP
0780
0FC0
0CC0
0CC0
0780
0300
0300
3FE0
7FF0
7070
6030
0030
0070
07F0
3FF0
7830
E030
C030
C030
E070
FBF8
7FBC
0C1C
ENDCHAR
STARTCHAR 230
ENCODING 230
SWIDTH 1800 0
DWIDTH 25 0
BBX 23 17 1 -1
BITMAP
0300C0
3FE7F0
7FEFFC
707C1C
60380E
003806
003006
07FFFE
3FFFFE
783000
E03000
C03806
C0780E
E0FC1C
FBCFFC
7F87F8
0C01C0
ENDCHAR
STARTCHAR 231
ENCODING 231
SWIDTH 1080 0
DWIDTH 15 0
BBX 13 18 1 -2
BITMAP
0600
1FC0
3FE0
7070
6030
E038
E000
C000
C000
C000
E000
E038
E038
7070
3FF0
1FC0
0700
0400
ENDCHAR
STARTCHAR 232
ENCODING 232
SWIDTH 1080 0
DWIDTH 15 0
BBX 14 22 1 -1
BITMAP
1E00
0600
0300
0180
0000
0700
1FE0
3FF0
7070
6038
E018
E018
FFFC
FFFC
C000
E000
E018
6038
7038
3FF0
1FE0
0780
ENDCHAR
STARTCHAR 233
ENCODING 233
SWIDTH 1080 0
DWIDTH 15 0
BBX 14 22 1 -1
BITMAP
01C0
0380
0300
0600
0000
0700
1FE0
3FF0
7070
6038
E018
E018
FFFC
FFFC
C000
E000
E018
6038
7038
3FF0
1FE0
0780
ENDCHAR
STARTCHAR 234
ENCODING 234
SWIDTH 1080 0
DWIDTH 15 0
BBX 14 22 1 -1
BITMAP
0780
0780
0CC0
1860
0000
0700
1FE0
3FF0
7070
6038
E018
E018
FFFC
FFFC
C000
E000
E018
6038
7038
3FF0
1FE0
0780
ENDCHAR
STARTCHAR 235
ENCODING 235
SWIDTH 1080 0
DWIDTH 15 0
BBX 14 22 1 -1
BITMAP
1CE0
1CE0
1CE0
0000
0000
0700
1FE0
3FF0
7070
6038
E018
E018
FFFC
FFFC
C000
E000
E018
6038
7038
3FF0
1FE0
0780
ENDCHAR
STARTCHAR 236
ENCODING 236
SWIDTH 432 0
DWIDTH 6 0
BBX 6 21 0 0
BITMAP
F0
38
18
0C
00
00
30
30
30
30
30
30
30
30
30
30
30
30
30
30
30
ENDCHAR
STARTCHAR 237
ENCODING 237
SWIDTH 432 0
DWIDTH 6 0
BBX 5 21 1 0
BITMAP
38
60
C0
80
00
00
60
60
60
60
60
60
60
60
60
60
60
60
60
60
60
ENDCHAR
STARTCHAR 238
ENCODING 238
SWIDTH 576 0
DWIDTH 8 0
BBX 8 21 0 0
BITMAP
3C
7C
66
C3
00
00
18
18
18
18
18
18
18
18
18
18
18
18
18
18
18
ENDCHAR
STARTCHAR 239
ENCODING 239
SWIDTH 576 0
DWIDTH 8 0
BBX 8 21 0 0
BITMAP
E7
E7
E7
00
00
00
18
18
18
18
18
18
18
18
18
18
18
18
18
18
18
ENDCHAR
STARTCHAR 240
ENCODING 240
SWIDTH 1080 0
DWIDTH 15 0
BBX 14 22 1 -1
BITMAP
3880
1F80
1F00
7F80
01C0
02E0
1FF0
3FF0
7078
6038
E018
E018
C01C
C01C
C01C
E018
E018
E038
7078
3FF0
1FE0
0780
ENDCHAR
STARTCHAR 241
ENCODING 241
SWIDTH 1152 0
DWIDTH 16 0
BBX 12 20 2 0
BITMAP
3EC0
3FC0
6000
0000
0300
CFE0
DFE0
F070
E070
C070
C070
C070
C070
C070
C070
C070
C070
C070
C070
C070
ENDCHAR
STARTCHAR 242
ENCODING 242
SWIDTH 1080 0
DWIDTH 15 0
BBX 14 22 1 -1
BITMAP
1E00
0600
0300
0180
0000
0700
1FE0
3FF0
7070
6038
E018
E018
C01C
C01C
C01C
E018
E018
6038
7070
3FF0
1FE0
0780
ENDCHAR
STARTCHAR 243
ENCODING 243
SWIDTH 1080 0
DWIDTH 15 0
BBX 14 22 1 -1
BITMAP
01C0
0380
0700
0600
0000
0700
1FE0
3FF0
7070
6038
E018
E018
C01C
C01C
C01C
E018
E018
6038
7070
3FF0
1FE0
0780
ENDCHAR
STARTCHAR 244
ENCODING 244
SWIDTH 1080 0
DWIDTH 15 0
BBX 14 22 1 -1
BITMAP
0700
0F80
0CC0
18C0
0000
0700
1FE0
3FF0
7070
6038
E018
E018
C01C
C01C
C01C
E018
E018
6038
7070
3FF0
1FE0
0780
ENDCHAR
STARTCHAR 245
ENCODING 245
SWIDTH 1080 0
DWIDTH 15 0
BBX 14 22 1 -1
BITMAP
0020
1F60
1FE0
0000
0000
0700
1FE0
3FF0
7070
6038
E018
E018
C01C
C01C
C01C
E018
E018
6038
7070
3FF0
1FE0
0780
ENDCHAR
STARTCHAR 246
ENCODING 246
SWIDTH 1080 0
DWIDTH 15 0
BBX 14 22 1 -1
BITMAP
1CE0
1CE0
1CE0
0000
0000
0700
1FE0
3FF0
7070
6038
E018
E018
C01C
C01C
C01C
E018
E018
6038
7070
3FF0
1FE0
0780
ENDCHAR
STARTCHAR 247
ENCODING 247
SWIDTH 1224 0
DWIDTH 17 0
BBX 14 14 1 0
BITMAP
0380
0380
0380
0000
0000
0000
FFFC
FFFC
0000
0000
0000
0380
0380
0380
ENDCHAR
STARTCHAR 248
ENCODING 248
SWIDTH 1080 0
DWIDTH 15 0
BBX 14 17 1 -1
BITMAP
0600
1FEC
3FF8
7070
E038
E058
E098
C19C
C31C
C61C
CC18
F818
F038
7070
7FF0
9FE0
8380
ENDCHAR
STARTCHAR 249
ENCODING 249
SWIDTH 1152 0
DWIDTH 16 0
BBX 12 22 2 -1
BITMAP
3800
0C00
0600
0200
0000
0000
C070
C070
C070
C070
C070
C070
C070
C070
C070
C070
C070
C070
E0F0
FFB0
7F30
1C00
ENDCHAR
STARTCHAR 250
ENCODING 250
SWIDTH 1152 0
DWIDTH 16 0
BBX 12 22 2 -1
BITMAP
03C0
0300
0600
0C00
0000
0000
C070
C070
C070
C070
C070
C070
C070
C070
C070
C070
C070
C070
E0F0
FFB0
7F30
1C00
ENDCHAR
STARTCHAR 251
ENCODING 251
SWIDTH 1152 0
DWIDTH 16 0
BBX 12 22 2 -1
BITMAP
0F00
1F00
1980
3080
0000
0000
C070
C070
C070
C070
C070
C070
C070
C070
C070
C070
C070
C070
E0F0
FFB0
7F30
1C00
ENDCHAR
STARTCHAR 252
ENCODING 252
SWIDTH 1152 0
DWIDTH 16 0
BBX 12 22 2 -1
BITMAP
39C0
39C0
39C0
0000
0000
0000
C070
C070
C070
C070
C070
C070
C070
C070
C070
C070
C070
C070
E0F0
FFB0
7F30
1C00
ENDCHAR
STARTCHAR 253
ENCODING 253
SWIDTH 1008 0
DWIDTH 14 0
BBX 12 23 1 -2
BITMAP
03C0
0300
0600
0C00
0000
0000
C030
C070
E070
6060
60E0
70C0
30C0
31C0
3980
1B80
1B80
1F00
0F00
0F00
0E00
0E00
0C00
ENDCHAR
STARTCHAR 254
ENCODING 254
SWIDTH 1152 0
DWIDTH 16 0
BBX 13 23 2 -2
BITMAP
C000
C000
C000
C000
C000
C300
DFC0
FFE0
F070
E038
E038
C018
C018
C018
C018
C018
E038
E038
F070
FFF0
DFC0
C700
C000
ENDCHAR
STARTCHAR 255
ENCODING 255
SWIDTH 1008 0
DWIDTH 14 0
BBX 12 23 1 -2
BITMAP
39C0
39C0
39C0
0000
0000
0000
C030
C070
E070
6060
60E0
70C0
30C0
31C0
3980
1B80
1B80
1F00
0F00
0F00
0E00
0E00
0C00
ENDCHAR
ENDFONT
